<svg xmlns="http://www.w3.org/2000/svg" viewBox="0 0 100 100">
  <rect width="100" height="100" rx="22" fill="#2563eb"/>
  <g transform="translate(50,50) scale(0.115) translate(-384,-515)">
    <path fill="white" d="M372.710876,899.366821 C323.246857,897.521667 276.303223,886.699036 231.684021,866.436890 C144.843201,827.001587 80.773834,763.999329 39.234940,678.279053 C21.772747,642.243896 10.948864,604.115723 5.438016,564.368469 C1.869161,538.627808 1.431492,512.776306 3.016181,487.085907 C6.993861,422.601044 26.323050,362.689789 60.870880,307.959290 C100.526154,245.137604 153.773804,197.283936 220.526016,164.608017 C256.394531,147.050034 294.229309,135.633057 333.724854,129.972672 C354.152466,127.045082 374.756683,125.519592 395.418640,126.032188 C450.704132,127.403748 503.640808,139.074905 553.806885,162.670746 C596.494690,182.749146 634.041443,209.966904 666.860657,243.804169 C681.853027,259.261658 676.033997,283.601746 655.841736,288.645233 C645.740234,291.168274 636.841187,288.505737 629.410217,280.860687 C606.513794,257.304474 580.899780,237.241318 552.198120,221.161545 C520.394287,203.343857 486.619995,191.008041 450.759888,184.427429 C433.217072,181.208176 415.542542,179.475449 397.687653,179.053391 C321.038177,177.241486 251.815887,199.140945 190.296936,244.645737 C130.038589,289.218048 89.563957,347.998077 68.034271,419.698425 C60.406181,445.102295 56.508194,471.197174 55.113430,497.762756 C52.893898,540.037476 59.190861,581.031006 72.594589,620.951050 C82.722534,651.114929 97.287239,679.176147 115.692604,705.172180 C140.621750,740.382385 171.128113,769.833252 207.300354,793.375488 C244.476486,817.571228 284.844666,833.800415 328.508209,841.725769 C345.562897,844.821289 362.738281,846.571167 380.100464,846.977417 C428.675232,848.114197 475.996033,842.035461 521.354431,823.722900 C555.326599,810.007263 585.343994,790.172729 611.546326,764.724487 C650.132141,727.249207 679.762878,683.427795 701.811951,634.461853 C709.514221,617.356812 714.418884,599.408325 715.587708,580.597717 C716.870667,559.952087 705.596008,544.979248 685.440308,540.822998 C670.279785,537.696899 654.877991,539.825012 639.591309,539.367493 C637.303589,539.299011 636.300293,540.677612 636.254272,542.837646 C636.201050,545.336426 636.045532,547.845215 636.199463,550.333313 C636.422302,553.932373 635.436462,556.048035 631.294128,555.998230 C627.593018,555.953674 624.436096,555.743774 624.901917,550.806702 C625.238586,547.238159 623.496765,546.080200 620.124023,546.358276 C617.078003,546.609375 613.768066,546.235779 614.315247,550.931702 C614.800293,555.093994 612.439697,555.995178 608.876038,556.008118 C605.401794,556.020752 603.431030,554.902649 603.745911,551.109619 C603.989563,548.175659 603.100708,546.367676 599.648804,546.338013 C596.179626,546.308228 593.471008,547.101257 593.516479,551.063721 C593.559143,554.786255 591.933960,555.964294 588.423889,555.998047 C584.662231,556.034180 582.829529,554.696411 582.997131,550.769226 C583.148926,547.212708 580.877991,546.387207 577.773254,546.342957 C574.682434,546.298950 572.955017,547.415344 573.120544,550.653564 C573.315002,554.456970 571.612488,555.985779 567.776794,556.035034 C563.940247,556.084351 562.371521,554.774963 562.489502,550.808105 C562.601990,547.021667 559.737366,546.475037 556.610229,546.337708 C553.276794,546.191345 552.022034,547.746582 552.284363,550.835693 C552.595093,554.492859 550.862122,555.687195 547.327454,555.977722 C539.559082,556.616211 532.982849,561.283386 525.593567,563.069214 C516.034851,565.379333 511.483551,570.741272 508.861115,580.437805 C503.505493,600.240356 493.946350,618.216675 479.559265,633.210693 C471.655731,641.447632 462.730560,641.417236 454.690491,633.480652 C420.778351,600.005188 386.875763,566.520081 352.945526,533.062988 C348.796509,528.971863 344.365265,525.161438 340.303009,520.989014 C332.394012,512.865356 333.008087,504.045380 341.875824,495.256104 C349.509644,487.689728 359.056183,487.506653 366.660706,495.010223 C384.333679,512.448608 401.897614,529.997375 419.552277,547.454285 C426.303772,554.130188 433.276398,560.584534 439.954987,567.331055 C442.501740,569.903748 444.434998,570.100891 447.036469,567.520813 C451.763367,562.832703 456.694885,558.351013 461.530548,553.772156 C462.134277,553.200500 462.748016,552.614929 463.231598,551.945129 C465.085327,549.377808 467.679169,546.443787 464.709320,543.575134 C461.726196,540.693604 458.808563,543.191833 456.472321,545.409973 C452.968506,548.736511 449.487732,552.106445 446.245422,555.682983 C443.986725,558.174500 442.332458,558.491028 439.768951,555.933228 C423.730682,539.930298 407.554291,524.065796 391.446869,508.132050 C390.648132,507.341919 390.066101,506.332733 389.450439,505.514893 C389.699127,504.986755 389.762177,504.521423 389.987823,504.420837 C407.007507,496.832825 407.238983,485.509735 405.575989,472.065338 C404.382721,462.418335 394.445038,454.484070 383.636047,454.311707 C367.307404,454.051300 350.971100,454.072845 334.640808,454.242310 C330.042664,454.290039 327.125000,453.523041 327.743286,448.053101 C328.164246,444.328705 325.504913,444.284454 322.820374,444.288940 C304.321014,444.319855 285.821564,444.312042 267.322144,444.310822 C246.656128,444.309479 225.989319,444.409454 205.324432,444.254333 C193.970001,444.169128 185.164536,436.623413 183.062332,425.718201 C180.742737,413.685272 185.745636,403.027008 195.808334,398.548462 C199.227661,397.026642 202.817352,396.620117 206.532562,396.623108 C243.364655,396.652832 280.196777,396.636475 317.028900,396.628876 C318.861786,396.628510 320.694672,396.583252 322.527588,396.569061 C326.173615,396.540863 327.994446,394.973297 327.840607,391.064484 C327.637604,385.905945 327.871735,380.731659 327.756378,375.567719 C327.684235,372.338898 328.659393,370.648865 332.283447,370.657745 C366.782104,370.742188 401.289276,370.268341 435.776794,370.897583 C457.023865,371.285217 472.533661,383.339203 485.321350,399.216431 C497.749451,414.647125 505.518738,432.461823 510.909149,451.354858 C511.881653,454.763519 513.531677,456.895599 516.671753,458.242950 C524.933228,461.787720 533.144043,465.450562 541.403137,469.000977 C542.606812,469.518463 543.981018,470.008362 545.247620,469.944336 C549.990479,469.704651 552.921082,470.821167 552.381409,476.558868 C552.001770,480.594635 555.541870,479.435059 557.818359,479.633392 C560.626526,479.878052 562.994019,479.350708 562.608704,475.733124 C562.177368,471.684174 563.805969,469.964539 567.942749,470.017853 C571.462769,470.063202 573.382996,471.238007 573.058899,474.963928 C572.725891,478.792297 574.675476,479.741425 578.187561,479.731049 C581.554626,479.721100 583.277832,478.685059 582.998108,475.171783 C582.681519,471.196777 584.746155,470.034241 588.440369,469.968536 C592.510315,469.896179 593.781006,471.735596 593.363037,475.448456 C592.926819,479.323090 595.347778,479.679657 598.381409,479.702393 C601.601990,479.726501 604.162292,479.355408 603.747314,475.228699 C603.383606,471.612030 605.018127,470.128357 608.618103,470.031128 C612.387207,469.929321 614.928589,470.705414 614.321838,475.223450 C613.832275,478.869263 615.730591,479.809509 619.038696,479.704742 C622.207581,479.604370 625.330505,479.892639 624.912781,475.262054 C624.474670,470.404358 627.492737,470.002319 631.255493,469.991028 C635.338562,469.978821 636.202820,472.042969 636.239319,475.653870 C636.351379,486.756409 636.457031,486.679749 647.856628,486.755371 C664.810730,486.867859 681.794006,485.917328 698.588318,489.637817 C738.947144,498.578583 765.283936,530.079163 767.462646,571.402222 C769.039124,601.303467 761.515503,629.231628 749.899902,656.179504 C730.351440,701.531189 703.304077,742.208984 670.718384,779.223389 C639.660095,814.502625 603.604797,843.395508 561.099854,863.851990 C524.598694,881.419006 486.104614,891.966431 445.874023,896.552490 C425.511353,898.873840 405.120789,900.094788 384.643372,900.013977 C380.822571,899.998901 377.003265,899.597290 372.710876,899.366821z"/>
    <path fill="white" d="M389.495483,580.504150 C409.157104,599.969543 428.597961,619.155334 447.953278,638.427063 C451.645996,642.103882 455.968323,644.730774 460.759277,646.593933 C459.995270,649.239319 458.032074,649.592590 456.461914,650.280029 C449.055725,653.522461 441.312012,655.307861 433.197571,655.308105 C400.214203,655.309021 367.230225,655.204407 334.248047,655.402588 C329.144745,655.433228 327.341949,653.806458 327.760864,648.812134 C328.093842,644.842102 327.820068,640.821777 327.827667,636.823792 C327.841827,629.354980 327.845428,629.351257 320.593536,629.351624 C283.612183,629.353271 246.630829,629.365234 209.649490,629.344910 C206.657959,629.343262 203.607162,629.462280 200.685410,628.948303 C188.251129,626.761169 181.646286,616.490845 182.794327,601.475830 C183.654984,590.219482 193.134216,581.766785 205.302750,581.742004 C239.118896,581.673218 272.935272,581.724609 306.751556,581.726440 C312.248779,581.726746 317.751495,581.565369 323.241272,581.764832 C326.778931,581.893494 328.108582,580.442139 327.825226,577.056885 C327.714569,575.734924 327.903778,574.390198 327.838348,573.061707 C327.683746,569.921814 329.023987,568.584595 332.263947,568.606506 C346.256165,568.700989 360.249481,568.672363 374.242157,568.621399 C376.409912,568.613525 378.045471,569.380737 379.549438,570.885193 C382.726440,574.063110 386.006927,577.137573 389.495483,580.504150z"/>
    <path fill="white" d="M160.940582,453.993958 C202.139801,484.393280 243.054718,514.571411 284.239655,544.948730 C281.602417,546.897400 279.949554,545.547119 278.330231,545.054688 C249.204727,536.197266 220.098633,527.276062 190.979843,518.396484 C185.645126,516.769653 185.224258,517.045105 185.189270,522.617493 C185.113983,534.611328 185.168167,546.605957 185.134171,558.600098 C185.128662,560.542786 185.507797,562.574158 183.828400,565.358887 C145.882599,538.285645 108.146187,511.361725 70.409775,484.437866 C70.670158,483.845947 70.930542,483.254059 71.190926,482.662140 C98.757767,490.594421 126.324600,498.526672 155.018448,506.783234 C155.018448,487.750397 155.018448,469.748749 155.018448,451.957611 C158.102524,451.062408 159.211716,452.812042 160.940582,453.993958z"/>
    <path fill="white" d="M401.149353,479.110840 C400.837830,490.659851 396.465027,497.001526 387.827179,499.334351 C384.775360,500.158569 382.397766,499.908112 380.271149,497.345642 C378.578186,495.305786 376.538208,493.554077 374.653931,491.672791 C360.201630,477.243744 344.760468,478.077759 332.024231,493.872681 C330.235474,496.091095 329.801880,499.777252 326.067169,500.055573 C321.056213,500.429047 316.054779,500.363190 311.465149,497.927582 C303.198395,493.540619 299.896301,483.581055 302.792969,472.036591 C304.632629,464.704773 311.830444,459.695770 320.631470,459.688873 C340.435272,459.673340 360.239075,459.686615 380.042877,459.684631 C393.948578,459.683228 399.387787,464.573730 401.149353,479.110840z"/>
    <path fill="white" d="M355.804962,547.188904 C360.691986,552.112305 365.330872,556.784363 369.892792,561.378906 C368.103973,563.945618 366.095947,563.216553 364.406738,563.224609 C349.926910,563.293579 335.446259,563.334534 320.966675,563.246460 C309.041901,563.173889 302.041443,555.588440 302.043793,542.988831 C302.046173,530.147400 308.866272,523.223328 320.847626,522.570496 C327.920746,522.184998 333.043060,524.078369 337.744202,529.494263 C343.173981,535.749451 349.576599,541.160156 355.804962,547.188904z"/>
  </g>
</svg>
